<?xml version="1.0" encoding="UTF-8" standalone="no"?>
<svg
   xmlns:dc="http://purl.org/dc/elements/1.1/"
   xmlns:cc="http://creativecommons.org/ns#"
   xmlns:rdf="http://www.w3.org/1999/02/22-rdf-syntax-ns#"
   xmlns:svg="http://www.w3.org/2000/svg"
   xmlns="http://www.w3.org/2000/svg"
   viewBox="0 0 356.72134 137.75333"
   height="137.75333"
   width="356.72134"
   xml:space="preserve"
   id="svg2"
   version="1.1"><metadata
     id="metadata8"><rdf:RDF><cc:Work
         rdf:about=""><dc:format>image/svg+xml</dc:format><dc:type
           rdf:resource="http://purl.org/dc/dcmitype/StillImage" /></cc:Work></rdf:RDF></metadata><defs
     id="defs6"><clipPath
       id="clipPath18"
       clipPathUnits="userSpaceOnUse"><path
         id="path16"
         d="M 0,103.315 H 267.541 V 0 H 0 Z" /></clipPath></defs><g
     transform="matrix(1.3333333,0,0,-1.3333333,0,137.75333)"
     id="g10"><g
       id="g12"><g
         clip-path="url(#clipPath18)"
         id="g14"><g
           transform="translate(78.1537,85.3912)"
           id="g20"><path
             id="path22"
             style="fill:#61cbec;fill-opacity:1;fill-rule:nonzero;stroke:none"
             d="M 0,0 C 1.789,0 3.244,-1.461 3.244,-3.257 V -64.21 c 0,-1.796 -1.454,-3.258 -3.241,-3.258 -0.295,0 -0.597,0.042 -0.911,0.131 l -30.847,8.214 c -1.568,0.439 -3.29,2.318 -3.29,3.589 v 41.608 c 0,1.196 1.598,3.012 3.089,3.528 L -1.071,-0.182 C -0.723,-0.061 -0.362,0 0,0 m 0,5.184 c -0.937,0 -1.866,-0.158 -2.765,-0.468 L -33.631,-5.952 c -3.396,-1.174 -5.679,-4.379 -5.679,-7.974 v -41.608 c 0,-3.764 2.53,-7.104 6.152,-8.12 l 30.862,-8.675 c 0.75,-0.214 1.524,-0.322 2.299,-0.322 2.213,0 4.309,0.86 5.901,2.421 1.627,1.597 2.524,3.735 2.524,6.02 V -3.257 C 8.428,1.397 4.647,5.184 0,5.184" /></g><g
           transform="translate(57.3451,10.5894)"
           id="g24"><path
             id="path26"
             style="fill:#ffffff;fill-opacity:1;fill-rule:nonzero;stroke:none"
             d="m 0,0 c 0,-2.854 -2.312,-5.177 -5.154,-5.177 -0.472,0 -0.949,0.067 -1.43,0.202 L -48.163,6.096 c -2.254,0.633 -5.007,3.34 -5.007,5.595 v 56.071 c 0,2.147 2.581,4.767 4.703,5.501 l 41.609,13.761 c 0.554,0.193 1.126,0.29 1.7,0.29 2.845,0 5.158,-2.322 5.158,-5.176 z m -5.157,92.726 c -1.172,0 -2.339,-0.198 -3.471,-0.587 L -50.22,77.764 c -4.261,-1.473 -7.125,-5.493 -7.125,-10.003 V 11.69 c 0,-4.72 3.174,-8.909 7.718,-10.185 l 41.592,-11.693 c 0.945,-0.266 1.915,-0.402 2.882,-0.402 2.773,0 5.402,1.081 7.4,3.041 2.041,2.002 3.164,4.683 3.164,7.549 v 82.138 c 0,5.838 -4.74,10.588 -10.568,10.588" /></g><g
           transform="translate(117.2016,76.4859)"
           id="g28"><path
             id="path30"
             style="fill:#ffffff;fill-opacity:1;fill-rule:nonzero;stroke:none"
             d="m 0,0 c 2.794,0 5.01,-1.271 6.417,-3.565 l 5.646,3.237 C 9.77,3.758 5.222,6.166 0.076,6.166 c -8.324,0 -14.201,-5.819 -14.201,-13.989 0,-8.171 5.877,-13.99 14.201,-13.99 5.166,0 9.27,2.292 11.737,5.973 l -5.281,3.739 c -1.542,-2.294 -3.777,-3.545 -6.512,-3.545 -3.99,0 -7.439,2.812 -7.439,7.823 C -7.419,-3.198 -4.259,0 0,0" /></g><path
           id="path32"
           style="fill:#ffffff;fill-opacity:1;fill-rule:nonzero;stroke:none"
           d="m 133.881,55.173 h 6.437 v 26.978 h -6.437 z" /><g
           transform="translate(165.2192,65.6939)"
           id="g34"><path
             id="path36"
             style="fill:#ffffff;fill-opacity:1;fill-rule:nonzero;stroke:none"
             d="m 0,0 -12.293,16.457 h -6.167 v -26.978 h 6.436 V 5.937 L 0.271,-10.521 H 6.456 V 16.457 H 0 Z" /></g><g
           transform="translate(184.6205,65.9068)"
           id="g38"><path
             id="path40"
             style="fill:#ffffff;fill-opacity:1;fill-rule:nonzero;stroke:none"
             d="M 0,0 H 13.315 V 5.78 H 0 v 4.664 h 14.145 v 5.8 H -6.436 v -26.977 h 20.658 v 5.799 H 0 Z" /></g><g
           transform="translate(220.144,65.021)"
           id="g42"><path
             id="path44"
             style="fill:#ffffff;fill-opacity:1;fill-rule:nonzero;stroke:none"
             d="m 0,0 -6.147,17.13 h -9.115 V -9.848 h 6.436 V 8.556 l 5.395,-15.86 H 3.41 L 8.806,8.613 V -9.848 h 6.435 V 17.13 H 6.108 Z" /></g><g
           transform="translate(250.0063,66.6587)"
           id="g46"><path
             id="path48"
             style="fill:#ffffff;fill-opacity:1;fill-rule:nonzero;stroke:none"
             d="M 0,0 3.275,9.095 6.552,0 Z M 7.187,15.492 H -0.501 L -10.85,-11.485 h 6.726 l 2.043,5.666 H 8.633 l 2.042,-5.666 h 6.86 z" /></g><g
           transform="translate(114.5405,36.021)"
           id="g50"><path
             id="path52"
             style="fill:#61cbec;fill-opacity:1;fill-rule:nonzero;stroke:none"
             d="M 0,0 H -5.028 V 6.281 H 0 c 2.313,0 3.739,-1.097 3.739,-3.16 C 3.739,1.079 2.313,0 0,0 m 0.098,12.12 h -11.562 v -26.977 h 6.436 v 9.114 h 5.183 c 6.61,0 10.136,3.546 10.136,8.864 0,5.416 -3.526,8.999 -10.193,8.999" /></g><g
           transform="translate(135.6879,48.1411)"
           id="g54"><path
             id="path56"
             style="fill:#61cbec;fill-opacity:1;fill-rule:nonzero;stroke:none"
             d="m 0,0 h -6.436 v -26.978 h 20.002 v 5.974 H 0 Z" /></g><g
           transform="translate(169.808,32.3013)"
           id="g58"><path
             id="path60"
             style="fill:#61cbec;fill-opacity:1;fill-rule:nonzero;stroke:none"
             d="m 0,0 c 0,-3.7 -2.12,-5.453 -5.357,-5.453 -3.217,0 -5.338,1.753 -5.338,5.453 v 15.84 h -6.454 V -0.251 c 0,-7.379 4.45,-11.388 11.792,-11.388 7.342,0 11.813,4.009 11.813,11.388 V 15.84 H 0 Z" /></g><g
           transform="translate(195.4565,37.523)"
           id="g62"><path
             id="path64"
             style="fill:#61cbec;fill-opacity:1;fill-rule:nonzero;stroke:none"
             d="m 0,0 -1.118,0.193 c -2.986,0.521 -5.549,0.926 -5.549,2.621 0,1.6 1.791,2.428 4.238,2.428 3.161,0 5.801,-1.117 7.728,-2.273 L 8.17,8.248 C 4.085,10.502 0.924,11.1 -2.718,11.1 c -6.301,0 -10.771,-3.315 -10.868,-8.556 -0.097,-4.857 2.91,-7.36 8.46,-8.229 l 1.349,-0.211 c 3.526,-0.54 5.338,-1.001 5.338,-2.621 0,-1.676 -1.851,-2.505 -4.279,-2.505 -3.796,0 -6.648,1.426 -8.71,2.833 l -3.218,-5.242 c 2.987,-2.254 7.381,-3.429 11.871,-3.429 5.781,0 11.311,2.677 11.311,9.095 C 8.536,-3.353 5.241,-0.905 0,0" /></g></g></g></g></svg>